PathFileType	4	(X/Y/Z)	OpenSim_Sub08_EMGBaseline_Accel.trc
DataRate	CameraRate	NumFrames	NumMarkers	Units	OrigDataRate	OrigDataStartFrame	OrigNumFrames
100	100	41	8	m	100	3328	6654
Frame#	Time	torso_imu_offset_imu	pelvis_imu_offset_imu	tibia_r_imu_offset_imu	femur_r_imu_offset_imu	tibia_l_imu_offset_imu	femur_l_imu_offset_imu	toes_r_imu_offset_imu	toes_l_imu_offset_imu
				X1	Y1	Z1	X2	Y2	Z2	X3	Y3	Z3	X4	Y4	Z4	X5	Y5	Z5	X6	Y6	Z6	X7	Y7	Z7	X8		Y8	Z8	

3328	33.27000000	8.26514608	-0.09368101	6.27432951	8.64214133	-0.12903628	3.13986946	12.64029280	2.43540635	0.94752267	7.75659818	-2.77357276	2.13398507	9.64938219	-1.63840531	-0.74358647	9.26210219	0.71935413	-1.83581025	14.00097891	-0.14922907	11.32251147	5.85797945	1.04144653	10.49560397
3329	33.28000000	8.32390822	-0.03921568	6.29890046	8.67509272	-0.35148061	3.01509996	14.08047573	3.43158520	1.78455780	7.86628517	-3.13632466	2.15225344	9.58698510	-1.85890513	-0.42941684	9.26028775	0.95459039	-1.78170206	14.62424901	-0.73164365	10.58780128	5.51699459	1.00334337	10.75819254
3330	33.29000000	8.47698357	-0.02972554	6.22798832	8.70227382	-0.59008844	2.83730163	12.19312502	2.87553606	1.73884426	8.09638699	-3.55943111	2.24467239	9.58104874	-1.49633914	-0.44647190	9.36103012	1.10693812	-1.76291012	14.79749451	-0.74055236	9.87098999	5.88318320	0.92823114	10.63597510
3331	33.30000000	8.67378191	-0.03265434	6.18399834	8.84128302	-0.70800382	2.62458804	9.71091746	1.65454545	1.46533968	8.34256224	-4.11232379	2.26149292	9.80549228	-1.08078736	-0.51975524	9.37083143	1.15732582	-1.81744968	14.89298115	-1.43529644	9.21544642	5.90127967	0.84171361	10.52753284
3332	33.31000000	8.85479619	0.05507129	6.22808512	9.10448061	-0.73924943	2.48726115	9.01975576	0.72902005	1.37105543	8.56256214	-4.75859513	2.09253007	9.86808174	-1.02972763	-0.66948141	9.25086655	1.22133786	-1.83945963	15.47143875	-2.11929258	8.54540102	5.82146437	1.00063154	10.61574677
3333	33.32000000	9.02236373	0.13642383	6.23365532	9.40497302	-0.64585686	2.36534901	10.59582637	0.05644897	1.05717902	8.71193324	-5.24939448	1.81211490	9.66227343	-0.94649403	-0.86974588	9.22349424	1.26592107	-1.78252773	15.99424418	-2.28475082	7.66077932	5.46296215	1.24057172	10.95432071
3334	33.33000000	9.21225338	0.17868858	6.26409272	9.70671397	-0.45182165	2.26260229	12.85407464	-0.56710586	0.48528162	8.83264923	-5.37351660	1.69429998	9.60561520	-1.02786372	-0.91568712	9.13972915	1.23413402	-1.76472883	16.00778582	-1.64530154	6.46819779	5.76348615	1.15711302	10.45790209
3335	33.34000000	9.30687704	0.23751126	6.32846975	9.98569711	-0.23643348	2.10800683	13.78771725	-1.14233577	-0.02395903	8.94545340	-5.27091916	1.85058936	9.52573339	-1.20362606	-0.75400271	8.95000246	1.00999763	-1.86816683	15.71182507	-0.83777595	4.92277079	5.93838244	1.25442412	10.54887260
3336	33.35000000	9.39021950	0.24534658	6.39294683	10.27234010	-0.02057363	2.01977120	13.08986246	-1.54441405	-0.03721840	9.12646628	-5.40196643	2.10242435	9.69354243	-1.12360445	-0.64248716	9.04981545	0.90345453	-2.03085750	15.68760352	0.23470575	3.25030768	5.71812437	0.77146957	10.83189143
3337	33.36000000	9.60133580	0.28826636	6.47021157	10.64810048	0.05789053	1.97641249	11.78338949	-1.69552129	0.65793173	9.38612040	-6.12632333	2.46589109	9.99331718	-1.04263944	-0.23836372	9.13015203	1.07644197	-2.13590545	15.44422868	1.58913340	1.63862568	5.59178739	0.39041170	10.77358440
3338	33.37000000	9.85550572	0.29542311	6.60236447	11.00574335	-0.05013763	2.09964648	10.73131148	-1.14859397	0.81217331	9.59281867	-7.16386319	2.81986732	9.97801047	-0.87697488	-0.01513987	9.23347763	1.38903320	-2.26412935	14.96038524	3.83474974	0.63601598	5.48504510	0.63932863	11.02275950
3339	33.38000000	10.07918836	0.24495202	6.73677946	11.19473017	-0.12999370	2.48238493	9.74957403	0.48879348	0.07697279	9.65849947	-8.09539709	2.74883546	10.03672545	-0.85038494	-0.81823529	9.63426172	1.74660588	-2.37930865	15.86756069	7.14129823	0.29346018	5.73961103	0.36329447	10.88659218
3340	33.39000000	10.13438300	0.23582556	6.86755956	11.19005094	-0.20917078	2.79124319	8.60059850	2.17983808	0.33846890	9.74644269	-8.73496005	2.43734581	10.41363884	-1.54114891	-1.16496838	9.74619119	1.94526316	-2.48823046	16.72161680	8.24571448	-0.44770593	5.94693736	0.72353022	10.76849409
3341	33.40000000	10.03182082	0.18833604	6.93980723	10.96366367	-0.27281419	2.89136140	7.65247780	3.06333965	0.42616204	9.89114308	-8.85343860	2.18907252	10.44131178	-2.23507354	-1.42882215	9.62978176	2.00948554	-2.69421068	15.75761785	6.90126644	-1.70778939	5.84006636	1.17439961	10.89205372
3342	33.41000000	9.91411511	0.13502995	6.95305830	10.66793875	-0.29249514	2.80123570	7.15913039	3.64927041	-0.68747348	10.00752956	-8.42822069	2.19310570	10.40583695	-2.52166486	-1.56761661	9.70783587	1.84270897	-2.82476348	15.29770494	6.58855945	-2.17367124	5.42892617	1.11023617	11.13296609
3343	33.42000000	9.81382369	0.05829905	6.93218514	10.34878714	-0.29415652	2.58978011	7.34659903	3.48151638	-1.15995447	9.80727740	-7.55939142	2.38881548	10.45145588	-2.50083220	-1.33605790	9.87229469	1.70156125	-2.86326085	14.69020104	5.50019129	-1.16488448	5.74664715	0.98178122	10.94090038
3344	33.43000000	9.76488509	0.04289929	6.86788673	10.05605633	-0.31020555	2.27355326	7.87761586	2.39840470	-1.56585445	9.39615590	-6.24801614	2.61988633	10.41992764	-2.47448112	-1.13493030	9.99360263	1.67960593	-2.80114427	14.53568006	7.31757538	-1.59105801	5.94590383	1.03412701	10.97867082
3345	33.44000000	9.73688668	0.03660281	6.76836364	9.94412660	-0.38375817	1.98097662	8.33329411	1.78089155	-1.94496185	9.01402538	-4.83213716	2.68620291	10.72340171	-2.50685213	-0.92890729	10.10600268	1.83758519	-2.69068909	6.73351692	9.67859139	3.78475398	5.79182881	0.73722882	10.96016179
3346	33.45000000	9.80418559	0.02839273	6.78723358	10.04281180	-0.50990217	1.88607483	8.69148825	2.01187326	-1.72888063	8.82311583	-3.52064280	2.36858388	11.09680130	-2.67334511	-0.71520938	10.40192300	1.92849644	-2.51701136	1.27146449	-4.69676988	11.71601235	5.23901356	0.79831037	11.40242883
3347	33.46000000	10.06047232	0.02977579	6.85544111	10.30372603	-0.56549389	2.05869205	10.14071731	3.43919811	0.50229432	9.29484681	-2.61413442	1.89659820	11.33178953	-2.97687602	-0.51048147	10.71841612	1.98185728	-2.35871517	3.08127307	-11.49178401	12.03298897	5.33614245	0.96829164	11.31104007
3348	33.47000000	10.41748119	-0.00204444	6.95292799	10.60769513	-0.49360451	2.38160016	13.19150972	2.99482012	3.82826316	10.29486046	-2.36485557	1.80489763	11.52035535	-3.21355020	-0.44110277	10.91118571	1.97009259	-2.18449472	-4.28985803	-4.37603017	9.14348803	5.47186983	0.76076947	11.09870687
3349	33.48000000	10.67000139	-0.03341550	7.02694962	10.92246613	-0.26376761	2.69909103	14.15757433	-1.94273583	4.43883623	10.63104491	-2.26643471	2.44775980	11.68903677	-3.08010884	-0.00768422	11.12076976	1.99977102	-1.91719519	-0.83431663	-9.18603272	4.67292737	5.29733036	0.94800036	11.15730211
3350	33.49000000	10.49319041	-0.08631513	6.94434483	11.15681888	-0.01419257	2.95479042	11.69278689	-6.09724655	3.66926327	10.20832436	-2.10981021	3.70757185	11.71057763	-2.68628579	0.45039309	11.28232733	2.16787258	-1.66498162	6.30337964	-10.26933454	7.18608893	5.06226177	1.06415238	11.28923098
3351	33.50000000	10.04799200	-0.09675182	6.83943377	11.14535518	0.09423711	3.02265403	9.04804392	-8.33744287	3.04655460	9.98969470	-2.43569521	4.83531390	11.53883093	-2.18467851	0.92179814	11.03756010	2.32867760	-1.59500786	6.51403640	-9.08137571	6.61374746	4.82392819	0.64792121	11.07070746
3352	33.51000000	9.90620019	-0.11930406	6.84224696	10.87889823	0.11753845	3.05308844	8.52679741	-10.87903115	1.65791219	10.56320683	-3.23308017	5.09830282	11.38701334	-1.48079840	1.11461743	10.57901805	2.44689334	-1.57449251	5.06548477	-3.52595997	9.33028653	4.90639767	0.45950637	10.63173210
3353	33.52000000	10.01256718	-0.13123888	6.82983872	10.51138353	0.14661327	3.22032927	9.96644836	-12.02598512	1.17376734	11.31652616	-4.08129021	4.33524085	11.36533081	-0.94236479	1.42534961	10.33578345	2.36187960	-1.47952081	6.78706427	2.90124307	12.34320648	5.14724025	0.57773023	10.32823986
3354	33.53000000	10.06857838	-0.07597570	6.82795748	10.04274180	0.18322926	3.44796622	11.39545878	-10.49192303	1.57647259	11.17195832	-4.76768514	3.09430821	11.41263725	-0.57645627	1.60202482	10.08549290	2.23794140	-1.40533062	5.85564081	3.50010728	11.89798544	5.43990619	0.85177415	10.10791614
3355	33.54000000	9.97829657	-0.03134606	6.76660324	9.65775725	0.27099536	3.71243698	11.57979143	-6.31639331	2.10905558	10.12888010	-5.06407649	1.81391555	11.48222234	-0.41844206	1.69595664	10.07423930	2.12845676	-1.15711894	6.12921698	-0.88973690	10.72937761	5.32829556	1.32625469	10.47608702
3356	33.55000000	9.67710974	0.01685199	6.55385050	9.33364092	0.22135251	4.22775052	10.56380474	-1.73602521	1.40969895	8.91876599	-4.64910820	0.51572658	11.65860538	-0.61573817	1.77470501	10.22239272	1.91317576	-0.97559404	7.00139076	-5.84381590	9.24121559	5.80467293	1.51092119	10.47280943
3357	33.56000000	9.52713129	0.05382859	6.49648328	8.97932410	-0.09654946	4.68210918	9.69211640	2.94865368	-0.03896518	8.42936538	-3.30966641	-0.62986048	11.87152826	-1.30599610	1.46790758	10.03609475	1.75521834	-0.90408493	5.67042964	-6.66501031	7.71241599	6.21787694	1.01401000	9.77996776
3358	33.57000000	9.39069059	-0.00639405	6.34223162	8.89174697	-0.74061782	4.49753717	9.41828412	6.91576272	-0.83672788	8.50634628	-1.92823791	-1.06423453	12.56272013	-1.69670129	1.10019231	9.77102731	1.44225794	-0.74248990	4.90939435	-3.98168517	7.09994685	6.34629942	0.54452048	9.39553819
3359	33.58000000	9.16263358	-0.13684095	6.25747662	8.74591145	-1.56843692	3.98888227	8.79123659	7.56638447	-0.90484214	8.36056746	-1.36366473	-0.64778104	13.29971781	-0.53196978	1.22170375	9.44996847	0.75626761	-0.60423875	5.01490037	-1.60955123	8.36738509	6.89644047	1.13332920	10.05276281
3360	33.59000000	8.90708687	-0.15904489	6.12540563	8.59027043	-2.26966002	3.71172129	8.13980437	5.15555157	-0.96013184	8.16672554	-1.22007210	0.72038193	13.13017186	1.87830606	1.30735877	9.12015662	-0.17528603	-0.37467249	11.73950214	-7.29593087	8.60126547	7.92659660	2.77440329	10.24803098
3361	33.60000000	8.64584607	-0.18452256	5.99829564	8.61357691	-2.65494856	3.84467963	7.90460229	1.58018020	-2.44987720	8.49071857	-1.31024190	2.05522002	12.30063400	4.17466303	0.76306178	8.60804744	-0.86388635	-0.09857168	12.32206177	-14.92999884	5.19790575	10.09406607	3.58756588	10.63385391
3362	33.61000000	8.51372856	-0.26226823	5.99742321	8.70520839	-2.46583001	4.41897087	8.60425158	-1.85059183	-4.48734767	9.10311882	-1.77931000	1.93329154	11.80397987	5.05150696	-0.23622552	7.78452985	-1.06097184	-0.05283685	11.00052965	1.80579914	13.78508206	12.77816843	2.63351482	10.68025107
3363	33.62000000	8.55489724	-0.42136017	6.07556949	8.84253852	-1.64635772	5.10428719	10.87909201	-3.51877194	-4.32393609	9.68768426	-2.42569648	0.57226460	12.20242163	4.28485883	-1.21464710	7.55367564	-1.08417669	-0.19928821	11.88103310	9.90780692	17.57504631	14.16056921	2.35923506	10.47358092
3364	33.63000000	8.82989118	-0.60052265	6.17229705	8.98581362	-0.39886735	5.64529558	12.73580328	-2.26851285	-2.18032035	10.13337071	-2.77621398	-1.06312081	13.17385202	1.95732427	-1.97313497	8.16119943	-1.08287503	-0.29663476	3.90588481	-5.64513660	5.64081067	13.46610418	2.70784917	11.38200227
3365	33.64000000	8.93965285	-0.76759501	6.20588181	9.11232589	0.80683977	5.97769857	12.24424259	0.60651415	0.12885805	9.76189892	-2.18395710	-1.90763312	13.95029382	-1.08051727	-2.21308227	9.22053387	-1.05072107	-0.30370177	7.70329288	-3.62274397	7.13177320	13.33605086	2.08542697	10.88425671
3366	33.65000000	8.73769503	-0.92883484	6.18130324	9.11256767	1.58664654	6.00706138	9.83456576	1.94805099	0.88015519	9.12263912	-0.88930691	-2.16562842	13.56527949	-4.13395419	-1.99270393	10.03942631	-1.09028428	-0.39877622	5.44915394	0.11206620	9.85129651	13.68760515	2.77679250	10.10749861
3367	33.66000000	8.56680665	-0.97604480	6.23474230	8.87570366	1.90700183	5.84711427	8.19177526	1.32667059	0.60178289	9.07076220	0.21050990	-2.08735146	12.09512329	-6.58421149	-1.72236126	10.64739368	-1.03418675	-0.42241550	6.65388367	-2.26985262	7.92736869	13.01250627	5.02285565	10.85872107
3368	33.67000000	8.49738421	-0.94582702	6.26292371	8.44049903	1.77014316	5.66190860	8.84963615	-0.52772431	-0.11791539	9.42987751	0.63326735	-1.61385882	10.61103869	-7.51850253	-1.34786908	11.06984486	-0.76239004	-0.20910756	5.75001261	-0.46270668	8.79835750	12.82121365	5.00347043	11.08114542
